<svg width="500" height="500" viewBox="0 0 1500 1500" fill="none" xmlns="http://www.w3.org/2000/svg">
<path d="M104.993 165.543C104.999 162.945 104.2 160.408 102.708 158.28C101.215 156.153 99.1007 154.539 96.655 153.66C96.8717 152.527 96.98 151.377 96.98 150.222C96.98 140.233 88.8584 132.112 78.8967 132.112C73.05 132.112 67.635 134.9 64.225 139.612C62.5467 138.312 60.4917 137.608 58.35 137.608C55.8019 137.61 53.3585 138.623 51.5567 140.425C49.7549 142.227 48.7418 144.67 48.74 147.218C48.74 148.382 48.9567 149.518 49.335 150.575C44.3517 152.362 40.9434 157.153 40.9434 162.487C40.939 165.093 41.7405 167.636 43.238 169.768C44.7355 171.901 46.8558 173.518 49.3084 174.398C49.0906 175.53 48.9818 176.681 48.9834 177.833C48.9834 187.795 57.0784 195.89 67.04 195.89C69.9037 195.891 72.7263 195.209 75.2734 193.9C77.8205 192.592 80.0186 190.694 81.685 188.365C83.3634 189.692 85.4184 190.422 87.56 190.422C90.1082 190.42 92.5515 189.407 94.3534 187.605C96.1552 185.803 97.1683 183.36 97.17 180.812C97.17 179.648 96.9534 178.512 96.575 177.455C101.558 175.668 104.993 170.877 104.993 165.543Z" fill="white"/>
<path d="M66.1206 159.587L80.144 165.975L94.2773 153.575C94.494 152.547 94.5773 151.545 94.5773 150.462C94.5711 146.271 92.9034 142.253 89.9398 139.289C86.9762 136.326 82.9585 134.658 78.7673 134.652C73.5423 134.652 68.6973 137.224 65.7456 141.529L63.3906 153.737L66.1206 159.587Z" fill="#FED10A"/>
<path d="M51.6105 174.422C51.3939 175.45 51.3105 176.505 51.3105 177.588C51.3185 181.791 52.9932 185.818 55.9672 188.787C58.9412 191.756 62.9715 193.424 67.1739 193.425C69.7571 193.425 72.3012 192.794 74.5846 191.586C76.8681 190.378 78.8218 188.63 80.2755 186.495L82.6039 174.34L79.4905 168.385L65.4139 161.968L51.6105 174.422Z" fill="#24BBB1"/>
<path d="M51.5286 150.167L61.1386 152.44L63.2503 141.53C61.9503 140.53 60.327 139.987 58.6503 139.987C56.6402 139.988 54.7128 140.787 53.2914 142.208C51.8701 143.629 51.0712 145.557 51.0703 147.567C51.0703 148.46 51.2303 149.353 51.5286 150.167Z" fill="#EF5098"/>
<path d="M50.6896 152.467C46.4129 153.875 43.4062 157.988 43.4062 162.51C43.4062 166.923 46.1396 170.848 50.2279 172.418L63.7113 160.235L61.2479 154.957L50.6896 152.467Z" fill="#17A8E0"/>
<path d="M82.7129 186.495C84.0396 187.495 85.6362 188.065 87.2879 188.065C89.298 188.064 91.2254 187.265 92.6468 185.844C94.0681 184.423 94.867 182.495 94.8679 180.485C94.8695 179.589 94.7138 178.7 94.4079 177.858L84.8246 175.612L82.7129 186.495Z" fill="#93C83E"/>
<path d="M84.6633 173.095L95.2217 175.558C97.3353 174.851 99.1743 173.499 100.48 171.693C101.786 169.887 102.494 167.717 102.503 165.488C102.503 161.105 99.77 157.15 95.6817 155.605L81.875 167.705L84.6633 173.095Z" fill="#0779A1"/>
<path d="M130.493 176.913L131.765 176.78L131.848 179.38C128.492 179.84 125.622 180.083 123.24 180.083C120.073 180.083 117.827 179.163 116.5 177.321C115.173 175.48 114.523 172.611 114.523 168.738C114.523 160.996 117.61 157.125 123.757 157.125C126.735 157.125 128.957 157.965 130.417 159.615C131.877 161.265 132.61 163.891 132.61 167.438L132.42 169.955H117.85C117.85 172.391 118.283 174.205 119.177 175.368C120.07 176.531 121.587 177.128 123.777 177.128C126.017 177.177 128.258 177.104 130.49 176.911L130.493 176.913ZM129.302 167.356C129.302 164.65 128.868 162.728 128.002 161.618C127.135 160.508 125.728 159.94 123.778 159.94C121.828 159.94 120.34 160.535 119.365 161.7C118.39 162.865 117.877 164.758 117.865 167.358L129.302 167.356ZM137.207 179.945V150.9H140.51V179.946L137.207 179.945ZM161.382 164.271V175.398C161.382 176.508 164.115 176.453 164.115 176.453L163.953 179.376C161.625 179.376 159.703 179.566 158.54 178.456C156.042 179.559 153.339 180.122 150.608 180.108C148.578 180.108 147.035 179.541 145.98 178.375C144.925 177.238 144.383 175.586 144.383 173.421C144.383 171.283 144.925 169.688 146.008 168.685C147.092 167.681 148.797 167.035 151.125 166.818L158.055 166.151V164.256C158.055 162.768 157.73 161.685 157.08 161.035C156.43 160.385 155.537 160.06 154.427 160.06H145.733V157.15H154.207C156.697 157.15 158.512 157.716 159.648 158.883C160.812 160.02 161.382 161.835 161.382 164.271ZM147.792 173.26C147.792 175.966 148.902 177.32 151.148 177.32C153.158 177.324 155.154 176.985 157.05 176.318L158.05 175.968V168.666L151.527 169.29C150.2 169.398 149.253 169.776 148.657 170.426C148.06 171.076 147.79 172.023 147.79 173.243L147.792 173.26ZM174.292 160.103C171.097 160.103 169.475 161.213 169.475 163.46C169.475 164.488 169.853 165.22 170.585 165.653C171.317 166.086 172.995 166.52 175.618 166.98C178.242 167.44 180.085 168.063 181.168 168.901C182.252 169.713 182.793 171.256 182.793 173.53C182.793 175.803 182.06 177.455 180.6 178.513C179.14 179.571 177.027 180.11 174.212 180.11C172.398 180.11 166.307 179.433 166.307 179.433L166.497 176.563L174.238 177.158C175.943 177.158 177.243 176.888 178.138 176.346C179.033 175.805 179.492 174.885 179.492 173.613C179.492 172.341 179.113 171.475 178.355 171.013C177.597 170.551 175.918 170.12 173.322 169.713C170.725 169.306 168.882 168.713 167.8 167.9C166.717 167.116 166.175 165.626 166.175 163.486C166.175 161.346 166.933 159.753 168.448 158.72C169.963 157.686 171.86 157.176 174.107 157.176C175.893 157.176 182.12 157.636 182.12 157.636V160.533L174.297 160.1L174.292 160.103ZM198.763 160.481H191.752V171.04C191.752 173.556 191.942 175.236 192.293 176.023C192.672 176.806 193.538 177.215 194.92 177.215L198.845 176.945L199.062 179.678C197.085 180.003 195.595 180.165 194.568 180.165C192.268 180.165 190.697 179.598 189.802 178.486C188.907 177.375 188.475 175.236 188.475 172.098V160.485H185.335V157.615H188.475V150.848H191.75V157.588H198.762L198.763 160.481ZM203.363 154.77V150.936H206.667V154.78H203.363V154.77ZM203.363 179.946V157.613H206.667V179.946H203.363ZM221.03 157.153C222.005 157.153 223.657 157.343 225.983 157.695L227.038 157.828L226.905 160.508L221.705 160.101C219.215 160.101 217.508 160.696 216.615 161.888C215.722 163.08 215.262 165.3 215.262 168.521C215.262 171.743 215.668 173.988 216.507 175.261C217.345 176.535 219.078 177.156 221.732 177.156L226.932 176.75L227.065 179.483L220.92 180.106C217.482 180.106 215.1 179.213 213.8 177.453C212.5 175.693 211.823 172.716 211.823 168.52C211.823 164.323 212.527 161.373 213.935 159.695C215.368 158.016 217.725 157.15 221.028 157.15L221.03 157.153Z" fill="black"/>
<path fill-rule="evenodd" clip-rule="evenodd" d="M808.476 161L808.232 160.484L802.921 150.417C802.829 150.294 802.787 150.14 802.803 149.988C802.82 149.835 802.893 149.694 803.009 149.593L811.409 139.723C811.524 139.599 811.601 139.445 811.634 139.279L809.181 139.92L798.998 142.645C798.683 142.73 798.538 142.637 798.381 142.376L792.577 132.711C792.476 132.523 792.332 132.362 792.155 132.242L791.674 134.815L790.06 143.904L789.893 144.886C789.866 145.199 789.706 145.314 789.424 145.404L777.43 149.195C777.269 149.251 777.084 149.324 776.894 149.493L786.753 153.411L786.464 153.639L780.333 157.608C780.089 157.768 779.895 157.789 779.621 157.666L772.282 154.395C771.184 153.905 770.199 153.254 769.429 152.312C767.69 150.184 768.034 147.765 770.351 146.287C771.126 145.81 771.958 145.431 772.827 145.16L784.61 141.417C784.938 141.315 785.091 141.167 785.155 140.808L786.767 131.719C787.059 130.116 787.216 128.439 788.002 126.955C788.322 126.384 788.667 125.826 789.098 125.347C790.658 123.616 792.836 123.548 794.484 125.198C795.041 125.754 795.52 126.411 795.933 127.086L801.32 136.02C801.348 136.095 801.391 136.164 801.446 136.221C801.502 136.279 801.569 136.324 801.643 136.354C801.718 136.384 801.797 136.398 801.877 136.396C801.957 136.394 802.036 136.375 802.108 136.341L815.253 132.849C816.159 132.609 817.074 132.522 818.002 132.697C820.025 133.075 820.909 134.616 820.224 136.568C819.913 137.458 819.375 138.21 818.772 138.92L809.617 149.735C809.365 150.029 809.36 150.242 809.534 150.569L815.006 160.945C815.442 161.774 815.776 162.633 815.785 163.584C815.808 165.748 814.226 167.516 812.076 167.832C810.874 167.992 809.752 167.752 808.626 167.404L800.371 164.891C800.262 164.875 800.162 164.82 800.089 164.738C800.016 164.655 799.975 164.549 799.973 164.438L798.976 158.629C798.966 158.576 798.982 158.517 798.992 158.4L808.474 161.016" fill="#E25A1C"/>
<path fill-rule="evenodd" clip-rule="evenodd" d="M803.117 189.234L795.679 189.228C795.539 189.24 795.399 189.211 795.275 189.145C795.152 189.078 795.05 188.977 794.983 188.854L785.795 174.94L783.919 189.197H777.427L777.651 187.344L781.386 158.971C781.408 158.818 781.489 158.68 781.611 158.586L788.343 154.258C788.375 154.237 788.423 154.234 788.536 154.202L786.511 169.632L786.591 169.687L797.216 157.909L798.261 163.943C798.316 164.238 798.237 164.424 798.04 164.628L791.234 171.78L790.913 172.101L791.121 172.431L802.856 188.894C802.926 188.994 803.029 189.055 803.117 189.16V189.247M726.172 174.983C726.072 174.477 726.002 173.733 725.777 173.04C724.69 169.687 721.249 167.847 717.687 168.675C713.779 169.584 710.986 172.657 710.582 176.642C710.282 179.592 711.871 182.434 714.825 183.5C717.204 184.359 719.495 184 721.622 182.724C724.443 181.033 725.971 178.521 726.175 174.982L726.172 174.983ZM709.011 187.434L708.455 191.599L707.753 197.027C707.726 197.238 707.661 197.347 707.435 197.347L702.086 197.339C702.046 197.339 702.006 197.317 701.926 197.291L702.251 194.726L703.437 185.725L704.84 175.44C705.876 169.405 710.996 164.219 717.004 162.909C720.487 162.156 723.82 162.505 726.862 164.464C729.895 166.42 731.635 169.273 732.031 172.824C732.592 177.869 730.735 182.057 727.151 185.52C724.799 187.796 721.983 189.239 718.735 189.728C715.39 190.233 712.243 189.675 709.438 187.702C709.333 187.63 709.223 187.567 709.045 187.455" fill="#3C3A3E"/>
<path fill-rule="evenodd" clip-rule="evenodd" d="M706.102 158.754L700.239 163.119L699.32 161.68C698.48 160.506 697.436 159.628 695.922 159.522C695.327 159.465 694.727 159.55 694.171 159.768C693.615 159.987 693.119 160.334 692.722 160.78C691.952 161.614 691.853 162.795 692.571 163.735C693.362 164.769 694.227 165.751 695.11 166.708L699.56 171.418C700.885 172.87 701.939 174.499 702.265 176.484C702.653 178.843 702.181 181.091 701.066 183.165C698.982 187.003 695.747 189.231 691.452 189.927C689.556 190.234 687.664 190.173 685.813 189.628C683.357 188.907 681.645 187.296 680.549 185.023C680.161 184.221 679.862 183.372 679.51 182.509L685.869 179.106L686.061 179.568C686.422 180.289 686.703 181.059 687.183 181.725C688.511 183.697 690.656 184.3 692.831 183.324C693.397 183.067 693.921 182.727 694.386 182.314C695.787 181.07 696.05 179.337 695.027 177.771C694.431 176.873 693.685 176.065 692.943 175.259L687.709 169.488C686.539 168.137 685.747 166.559 685.497 164.749C685.225 162.773 685.617 160.907 686.646 159.243C689.203 155.107 692.921 152.954 697.836 153.132C700.638 153.233 702.869 154.543 704.6 156.723L706.118 158.735M753.587 180.962L752.633 188.189C752.617 188.309 752.521 188.471 752.42 188.519C747.582 190.76 741.21 190.448 737.236 185.935C735.101 183.511 734.191 180.634 734.34 177.433C734.649 170.022 740.793 163.554 748.126 162.649C752.419 162.12 756.183 163.281 759.09 166.615C761.072 168.887 761.987 171.585 761.852 174.594C761.763 176.572 761.452 178.54 761.206 180.525L760.108 188.883C760.096 188.982 760.076 189.08 760.052 189.204H754.281L754.511 187.312L755.758 177.659C755.987 175.652 755.843 173.659 754.924 171.8C753.962 169.823 752.311 168.778 750.157 168.55C745.7 168.079 741.459 171.176 740.507 175.562C739.878 178.457 740.869 181.233 743.174 182.767C745.421 184.263 747.829 184.268 750.279 183.296C751.521 182.806 752.579 182.027 753.586 180.977M777.961 163.215L777.171 169.217C775.948 169.217 774.747 169.211 773.548 169.22C772.577 169.228 771.689 169.855 771.397 170.764C771.285 171.12 771.24 171.501 771.192 171.886L769.374 185.712L768.92 189.216H762.893L763.223 186.616L764.403 177.659L765.454 169.911C765.996 166.46 769.43 163.396 772.912 163.243L777.958 163.23" fill="#3C3A3E"/>
<path d="M714.172 154.477H715.666L715.314 152.233L714.172 154.477ZM715.9 155.939H713.416L712.625 157.486H710.865L714.749 150.216H716.445L717.768 157.47H716.136L715.902 155.923" fill="#3C3A3E"/>
<path d="M724.795 151.691H723.91L723.612 153.366H724.497C725.03 153.366 725.458 153.013 725.458 152.353C725.458 151.915 725.189 151.691 724.795 151.691ZM722.652 150.248H724.976C726.194 150.248 727.06 150.973 727.06 152.22C727.06 153.788 725.951 154.844 724.372 154.844H723.37L722.9 157.5H721.387L722.666 150.247" fill="#3C3A3E"/>
<path d="M732.19 154.477H733.684L733.331 152.233L732.19 154.477ZM733.918 155.939H731.433L730.643 157.486H728.883L732.767 150.216H734.463L735.785 157.47H734.154L733.92 155.923" fill="#3C3A3E"/>
<path d="M743.744 157.228C743.229 157.468 742.669 157.596 742.101 157.602C740.182 157.602 738.975 156.159 738.975 154.359C738.975 152.055 740.898 150.114 743.223 150.114C743.8 150.114 744.321 150.252 744.746 150.487L744.532 152.227C744.212 151.874 743.699 151.629 743.061 151.629C741.738 151.629 740.565 152.824 740.565 154.193C740.565 155.251 741.225 156.069 742.272 156.069C742.88 156.067 743.469 155.86 743.946 155.482L743.742 157.21M753.001 154.561H749.843L749.33 157.483H747.817L749.096 150.229H750.611L750.098 153.115H753.256L753.769 150.229H755.284L754.005 157.483H752.49L753.001 154.561ZM758.556 157.484L759.835 150.231H763.842L763.586 151.674H761.093L760.837 153.081H763.14L762.884 154.543H760.564L760.308 156.005H762.815L762.558 157.467H758.538" fill="#3C3A3E"/>
<path d="M58.8327 730.378C57.891 729.415 56.5827 728.823 55.126 728.823C54.4394 728.82 53.7593 728.957 53.1269 729.224C52.4944 729.491 51.9226 729.884 51.446 730.378H51.421C50.9295 730.873 50.5406 731.461 50.2766 732.106C50.0127 732.752 49.8788 733.444 49.8827 734.142C49.873 735.545 50.4203 736.895 51.4043 737.895L51.4293 737.922C51.9079 738.412 52.4804 738.801 53.1127 739.065C53.745 739.33 54.4241 739.464 55.1093 739.46C56.566 739.46 57.8727 738.877 58.816 737.922L58.826 737.895C59.7693 736.948 60.326 735.623 60.326 734.142C60.3351 732.737 59.7895 731.385 58.8077 730.38H58.816L58.8327 730.378ZM55.126 803.178C56.5827 803.178 57.8893 802.575 58.8327 801.628L58.8427 801.602C59.786 800.658 60.3427 799.325 60.3427 797.86C60.3427 796.36 59.7677 795.05 58.8427 794.09H58.8327C57.891 793.118 56.5827 792.53 55.126 792.53C54.4387 792.526 53.7579 792.662 53.1251 792.93C52.4923 793.198 51.921 793.593 51.446 794.09H51.421C50.439 795.098 49.8925 796.452 49.8993 797.86C49.8928 799.259 50.4398 800.604 51.421 801.602L51.446 801.628C51.9255 802.118 52.4979 802.508 53.1299 802.773C53.7618 803.039 54.4404 803.178 55.126 803.178ZM83.5993 787.067C84.2684 786.889 84.8949 786.579 85.4417 786.155C85.9886 785.73 86.4446 785.2 86.7827 784.597L86.8793 784.41C87.4966 783.224 87.6442 781.848 87.2927 780.558C86.9493 779.232 86.126 778.055 84.856 777.325L84.7827 777.275C83.6001 776.608 82.2014 776.436 80.8927 776.798C79.5927 777.128 78.426 778.01 77.7127 779.277C77.0193 780.504 76.8305 781.954 77.186 783.318C77.5454 784.673 78.4189 785.834 79.621 786.555H79.6293C80.8793 787.288 82.291 787.417 83.601 787.055L83.5993 787.067ZM60.471 760.567C59.0993 759.175 57.2043 758.3 55.111 758.3C54.1133 758.302 53.126 758.503 52.2072 758.892C51.2885 759.281 50.4568 759.85 49.761 760.565C48.3943 761.955 47.5543 763.873 47.5543 766.007C47.5487 768.046 48.3406 770.008 49.761 771.472C51.1277 772.855 53.0177 773.722 55.0943 773.722C57.171 773.722 59.0827 772.855 60.4543 771.472C61.8764 770.008 62.6696 768.046 62.6643 766.005C62.6738 763.971 61.8795 762.015 60.4543 760.563L60.471 760.567ZM57.471 751.503C60.4634 752.01 63.2165 753.457 65.331 755.635H65.3477C65.6838 755.978 66.0026 756.338 66.3027 756.713L71.5193 753.642C70.833 751.528 70.774 749.26 71.3493 747.113C72.0927 744.28 73.8993 741.747 76.6027 740.158L76.691 740.102C77.9578 739.366 79.3582 738.889 80.8109 738.699C82.2635 738.51 83.7394 738.611 85.1527 738.997C86.5878 739.389 87.9307 740.063 89.1036 740.979C90.2766 741.894 91.2563 743.033 91.986 744.33V744.338C93.5393 747.072 93.8527 750.208 93.1144 753.032C92.3744 755.865 90.5643 758.415 87.861 759.995L87.1477 760.423H87.076C84.6574 761.593 81.8976 761.851 79.3043 761.148C77.1912 760.568 75.2932 759.384 73.8427 757.742L68.6327 760.803C69.2518 762.462 69.5669 764.219 69.5627 765.99C69.5627 767.817 69.2327 769.58 68.6327 771.2L73.8427 774.255C75.331 772.558 77.2327 771.422 79.3043 770.847C82.0877 770.073 85.1677 770.402 87.861 772L88.0344 772.083V772.092C90.5543 773.642 92.3752 776.108 93.1144 778.973C93.8857 781.905 93.4808 785.021 91.986 787.658L91.8927 787.85H91.881C90.3909 790.385 87.9763 792.244 85.1443 793.037C82.361 793.783 79.2777 793.465 76.586 791.89V791.868C73.9821 790.336 72.0926 787.834 71.3327 784.91C70.7564 782.767 70.8155 780.502 71.5027 778.392L66.286 775.328C65.9852 775.697 65.6665 776.052 65.331 776.39L65.3143 776.407C63.2277 778.54 60.481 780.023 57.4543 780.515V786.648C59.5954 787.11 61.5529 788.192 63.0827 789.76L63.091 789.777C65.1293 791.84 66.391 794.717 66.391 797.877C66.3964 800.9 65.2108 803.804 63.091 805.96L63.0827 805.993C61.0327 808.05 58.216 809.333 55.111 809.333C52.021 809.333 49.1977 808.05 47.151 805.975H47.1427V805.942C45.0206 803.786 43.8332 800.881 43.8377 797.856C43.8377 794.695 45.1043 791.82 47.1427 789.757V789.74H47.151C48.6727 788.164 50.6312 787.081 52.7743 786.628V780.495C49.7327 780.002 47.0077 778.52 44.941 776.387L44.9193 776.37C42.1949 773.602 40.6673 769.875 40.666 765.992C40.666 761.942 42.296 758.278 44.8993 755.62H44.921C47.0319 753.442 49.7825 751.995 52.7727 751.488V745.38C50.6366 744.904 48.6838 743.82 47.1493 742.26H47.141V742.243C45.0179 740.082 43.8307 737.171 43.836 734.142C43.833 731.113 45.0199 728.204 47.141 726.042L47.166 726.033C48.1979 724.969 49.4328 724.123 50.7974 723.545C52.1621 722.967 53.6289 722.668 55.111 722.667C58.2177 722.667 61.0327 723.95 63.0843 726.033V726.042H63.0927C65.131 728.117 66.3927 730.997 66.3927 734.142C66.3953 737.169 65.2105 740.078 63.0927 742.242L63.0843 742.258C61.5643 743.798 59.6243 744.9 57.456 745.378V751.487L57.471 751.503ZM86.7793 747.428L86.736 747.362C86.0446 746.179 84.9184 745.314 83.5977 744.95C82.9327 744.767 82.2378 744.719 81.5541 744.81C80.8704 744.901 80.2119 745.128 79.6177 745.478H79.626C78.3727 746.202 77.5343 747.387 77.1827 748.712C76.8235 750.076 77.0126 751.526 77.7093 752.753L77.7327 752.787C78.4543 754.037 79.6043 754.878 80.8877 755.217C82.176 755.587 83.6143 755.43 84.851 754.697L84.9177 754.663C86.1343 753.923 86.951 752.753 87.2877 751.47C87.6327 750.145 87.496 748.697 86.7793 747.428ZM109.933 749.223H115.754V767.31L124.151 757.86H131.151L121.014 768.81L131.159 782.667H124.493L115.739 770.27V782.667H109.916V749.207M137.879 770.362C137.879 773.442 140.056 777.918 145.301 777.918C148.546 777.918 150.681 776.198 151.789 773.943C152.369 772.848 152.636 771.677 152.726 770.443C152.77 769.244 152.541 768.05 152.056 766.952C151.036 764.607 148.769 762.573 145.259 762.573C140.551 762.573 137.881 766.457 137.881 770.303V770.345L137.879 770.362ZM158.499 782.667H152.674V779.095C151.124 781.983 147.878 783.433 144.454 783.433C136.633 783.433 132.054 777.233 132.054 770.23C132.054 762.408 137.609 757.073 144.454 757.073C148.898 757.073 151.608 759.47 152.674 761.462V757.84H158.499V782.667ZM165.094 762.41H162.094V757.843H165.094V756.443C165.094 749.067 170.606 748.622 174.786 748.573V753.133C173.316 753.133 170.919 753.133 170.919 756.623V757.84H174.786V762.407H170.919V782.667H165.094V762.41ZM178.761 749.207H184.581V767.293L192.981 757.843H199.981L189.844 768.793L199.999 782.667H193.333L184.579 770.27V782.667H178.759L178.761 749.207ZM206.726 770.362C206.726 773.442 208.901 777.918 214.148 777.918C217.388 777.918 219.524 776.198 220.648 773.943C221.231 772.848 221.481 771.677 221.584 770.443C221.624 769.265 221.406 768.04 220.913 766.952C219.913 764.607 217.629 762.573 214.118 762.573C209.408 762.573 206.739 766.457 206.739 770.303V770.345L206.726 770.362ZM227.326 782.667H221.503V779.095C219.948 781.983 216.703 783.433 213.283 783.433C205.461 783.433 200.888 777.233 200.888 770.23C200.888 762.408 206.438 757.073 213.283 757.073C217.724 757.073 220.436 759.47 221.503 761.462V757.84H227.326V782.667Z" fill="#231F20"/>
<path d="M766.262 714.943C748.759 697.804 718.994 707.131 714.591 731.335C708.37 732.233 703.041 736.305 700.525 742.092C700.522 742.099 700.519 742.106 700.516 742.113C695.303 754.145 704.185 767.549 717.217 767.549H772.347C787.044 767.549 799 755.593 799 740.896C799 723.824 783.046 711.019 766.262 714.943ZM772.347 761.3H717.217C703.693 761.3 700.707 742.108 713.562 737.969C716.443 737.061 721.962 736.534 728.089 742.245C729.352 743.421 731.329 743.351 732.505 742.09C733.682 740.827 733.612 738.85 732.35 737.674C728.848 734.41 724.915 732.336 720.928 731.53C725.231 712.179 749.712 705.778 762.968 720.533C763.786 721.444 765.061 721.793 766.228 721.426C779.367 717.302 792.751 727.163 792.751 740.897C792.751 752.147 783.598 761.3 772.347 761.3Z" fill="#01B2FE"/>
<line x1="299.5" y1="1" x2="299.5" y2="900" stroke="blue " stroke-opacity="0.2"/>
<line x1="4.37114e-08" y1="600.5" x2="900" y2="600.5" stroke="blue" stroke-opacity="0.2"/>
<line x1="600.5" y1="2.188e-08" x2="600.5" y2="900" stroke="blue" stroke-opacity="0.2"/>
<line x1="-4.38085e-08" y1="299.5" x2="900" y2="299.5" stroke="blue" stroke-opacity="0.2"/>
<g clip-path="url(#clip0_1813_1253)">
<path d="M433.75 381.662C433.742 381.662 433.733 381.662 433.725 381.662C427.741 381.662 422.793 384.746 420.567 389.787H418.617C418.605 389.787 418.592 389.787 418.58 389.787C413.417 389.787 408.513 391.514 404.776 394.658C400.811 397.989 398.625 402.584 398.617 407.585C398.613 411.627 400.754 416.104 402.781 418.924C393.75 422.052 387.612 429.62 387.6 437.969C387.587 446.28 393.722 453.853 402.769 457.009C400.713 459.821 398.528 464.273 398.524 468.246C398.512 478.102 407.522 486.134 418.621 486.154H420.571C422.777 491.183 427.737 494.271 433.75 494.279C433.758 494.279 433.766 494.279 433.778 494.279C441.789 494.279 447.392 488.669 447.404 480.629V395.312C447.412 387.289 441.802 381.674 433.75 381.662ZM433.75 450.725C432.316 450.725 431.15 449.559 431.15 448.125C431.15 446.691 432.316 445.525 433.75 445.525C435.184 445.525 436.35 446.691 436.35 448.125C436.35 449.559 435.184 450.725 433.75 450.725ZM444.475 430.412H435.212V404.676C437.548 404.03 439.275 401.91 439.275 399.375C439.275 396.328 436.797 393.85 433.75 393.85C430.703 393.85 428.225 396.328 428.225 399.375C428.225 401.914 429.951 404.03 432.287 404.676V430.412H425.625H425.617C422.375 430.412 420.104 432.683 420.1 435.937V438.537H410.614C409.968 436.201 407.847 434.475 405.312 434.475C402.265 434.475 399.787 436.953 399.787 440C399.787 443.047 402.265 445.525 405.312 445.525C407.851 445.525 409.972 443.794 410.614 441.462H420.1V465.163C417.764 465.809 416.037 467.929 416.037 470.469C416.037 473.515 418.515 475.994 421.562 475.994C424.609 475.994 427.087 473.515 427.087 470.469C427.087 467.929 425.361 465.809 423.025 465.163V435.937C423.029 434.308 423.996 433.333 425.621 433.333H425.625H444.475V480.617C444.462 486.532 440.786 490.61 435.212 491.22V453.426C437.548 452.78 439.275 450.66 439.275 448.121C439.275 445.074 436.797 442.596 433.75 442.596C430.703 442.596 428.225 445.074 428.225 448.121C428.225 450.66 429.951 452.78 432.287 453.426V491.248C427.806 490.785 424.361 488.234 422.943 484.2C422.736 483.615 422.184 483.225 421.562 483.225H418.621C410.35 483.213 401.437 477.484 401.445 468.25C401.453 464.326 404.345 459.276 406.344 457.286C406.718 456.916 406.86 456.372 406.722 455.864C406.584 455.356 406.186 454.962 405.678 454.832C396.744 452.533 390.512 445.598 390.525 437.969C390.537 430.347 396.708 423.453 405.536 421.146H416.261C416.907 423.482 419.027 425.208 421.562 425.208C424.609 425.208 427.087 422.73 427.087 419.683C427.087 416.636 424.609 414.162 421.562 414.162C419.023 414.162 416.907 415.889 416.261 418.225H405.97C404.032 416.027 401.534 411.355 401.538 407.589C401.546 403.462 403.362 399.667 406.661 396.897C409.826 394.236 414.172 392.712 418.588 392.712C418.597 392.712 418.609 392.712 418.621 392.712H421.562C422.18 392.712 422.732 392.322 422.939 391.741C424.532 387.26 428.562 384.587 433.725 384.587C433.733 384.587 433.737 384.587 433.746 384.587C440.177 384.599 444.487 388.906 444.475 395.312V430.412ZM433.75 401.975C432.316 401.975 431.15 400.809 431.15 399.375C431.15 397.941 432.316 396.775 433.75 396.775C435.184 396.775 436.35 397.941 436.35 399.375C436.35 400.809 435.184 401.975 433.75 401.975ZM421.562 467.869C422.996 467.869 424.162 469.034 424.162 470.469C424.162 471.903 422.996 473.069 421.562 473.069C420.128 473.069 418.962 471.903 418.962 470.469C418.962 469.034 420.128 467.869 421.562 467.869ZM407.912 440C407.912 441.434 406.746 442.6 405.312 442.6C403.878 442.6 402.712 441.434 402.712 440C402.712 438.566 403.878 437.4 405.312 437.4C406.746 437.4 407.912 438.566 407.912 440ZM418.962 419.687C418.962 418.253 420.128 417.087 421.562 417.087C422.996 417.087 424.162 418.253 424.162 419.687C424.162 421.121 422.996 422.287 421.562 422.287C420.128 422.287 418.962 421.121 418.962 419.687ZM512.4 437.969C512.408 429.657 506.273 422.088 497.23 418.928C499.29 416.116 501.472 411.664 501.48 407.687C501.488 402.686 499.286 398.079 495.28 394.715C491.555 391.587 486.493 389.791 481.382 389.783H479.432C477.222 384.754 472.266 381.666 466.258 381.658C466.246 381.658 466.237 381.658 466.225 381.658C462.277 381.658 458.88 382.97 456.402 385.449C453.92 387.939 452.608 391.343 452.6 395.312V480.621C452.587 488.648 458.198 494.259 466.246 494.275C466.258 494.275 466.266 494.275 466.274 494.275C472.258 494.275 477.202 491.187 479.428 486.15H481.374C481.391 486.15 481.403 486.15 481.415 486.15C486.578 486.15 491.482 484.419 495.219 481.279C499.188 477.948 501.374 473.357 501.382 468.352C501.386 464.31 499.245 459.829 497.218 457.014C506.253 453.885 512.387 446.317 512.4 437.969ZM466.25 425.212C467.684 425.212 468.85 426.378 468.85 427.812C468.85 429.246 467.684 430.412 466.25 430.412C464.816 430.412 463.65 429.246 463.65 427.812C463.65 426.378 464.816 425.212 466.25 425.212ZM494.468 454.787H483.739C483.093 452.451 480.972 450.725 478.433 450.725C475.386 450.725 472.908 453.203 472.908 456.25C472.908 459.297 475.386 461.775 478.433 461.775C480.968 461.775 483.093 460.048 483.739 457.712H494.029C495.963 459.91 498.461 464.582 498.453 468.348C498.449 472.475 496.633 476.27 493.334 479.036C490.162 481.705 485.758 483.139 481.378 483.221H478.437C477.82 483.221 477.267 483.615 477.06 484.192C475.463 488.677 471.433 491.346 466.274 491.346C466.266 491.346 466.254 491.346 466.254 491.346C463.081 491.342 460.383 490.322 458.458 488.4C456.532 486.479 455.517 483.794 455.525 480.625V445.525H464.783V471.257C462.447 471.903 460.721 474.023 460.721 476.562C460.721 479.609 463.199 482.087 466.246 482.087C469.292 482.087 471.771 479.609 471.771 476.562C471.771 474.027 470.044 471.903 467.708 471.257V445.525H474.367H474.379C477.625 445.525 479.887 443.254 479.896 440V437.4H489.377C490.023 439.736 492.144 441.462 494.683 441.462C497.73 441.462 500.208 438.984 500.208 435.937C500.208 432.89 497.73 430.412 494.683 430.412C492.144 430.412 490.023 432.139 489.377 434.475H479.9V410.77C482.236 410.124 483.962 408.004 483.962 405.469C483.962 402.422 481.484 399.944 478.437 399.944C475.39 399.944 472.912 402.422 472.912 405.469C472.912 408.004 474.639 410.124 476.975 410.77V440C476.975 441.629 476.008 442.604 474.383 442.604H474.375H455.525V395.312C455.529 392.139 456.548 389.442 458.47 387.52C460.083 385.904 462.26 384.973 464.787 384.705V422.507C462.451 423.153 460.725 425.273 460.725 427.808C460.725 430.855 463.203 433.333 466.25 433.333C469.297 433.333 471.775 430.855 471.775 427.808C471.775 425.273 470.048 423.153 467.712 422.507V384.685C472.193 385.152 475.638 387.699 477.056 391.737C477.263 392.322 477.82 392.712 478.437 392.712H481.378C485.815 392.716 490.194 394.268 493.399 396.958C496.731 399.757 498.563 403.563 498.555 407.687C498.551 411.611 495.654 416.661 493.659 418.651C493.286 419.021 493.143 419.565 493.277 420.073C493.416 420.581 493.818 420.975 494.326 421.105C503.255 423.409 509.487 430.343 509.475 437.969C509.467 445.582 503.3 452.472 494.468 454.787ZM481.037 456.25C481.037 457.684 479.871 458.85 478.437 458.85C477.003 458.85 475.837 457.684 475.837 456.25C475.837 454.816 477.003 453.65 478.437 453.65C479.871 453.65 481.037 454.816 481.037 456.25ZM466.25 473.962C467.684 473.962 468.85 475.128 468.85 476.562C468.85 477.996 467.684 479.162 466.25 479.162C464.816 479.162 463.65 477.996 463.65 476.562C463.65 475.128 464.816 473.962 466.25 473.962ZM478.437 408.069C477.003 408.069 475.837 406.903 475.837 405.469C475.837 404.034 477.003 402.869 478.437 402.869C479.871 402.869 481.037 404.034 481.037 405.469C481.037 406.903 479.871 408.069 478.437 408.069ZM492.087 435.937C492.087 434.503 493.253 433.337 494.687 433.337C496.121 433.337 497.287 434.503 497.287 435.937C497.287 437.371 496.121 438.537 494.687 438.537C493.253 438.537 492.087 437.371 492.087 435.937Z" fill="#01B2FE"/>
</g>
<path d="M726.607 791.58H722.357C722.235 790.883 722.012 790.265 721.686 789.727C721.36 789.182 720.955 788.72 720.47 788.341C719.985 787.962 719.432 787.678 718.811 787.489C718.197 787.292 717.535 787.193 716.822 787.193C715.557 787.193 714.436 787.511 713.459 788.148C712.482 788.777 711.716 789.701 711.163 790.92C710.61 792.133 710.334 793.614 710.334 795.364C710.334 797.144 710.61 798.644 711.163 799.864C711.724 801.076 712.489 801.992 713.459 802.614C714.436 803.227 715.554 803.534 716.811 803.534C717.508 803.534 718.16 803.443 718.766 803.261C719.379 803.072 719.929 802.795 720.413 802.432C720.906 802.068 721.319 801.621 721.652 801.091C721.993 800.561 722.228 799.955 722.357 799.273L726.607 799.295C726.447 800.402 726.103 801.439 725.572 802.409C725.05 803.379 724.364 804.235 723.516 804.977C722.667 805.712 721.675 806.288 720.538 806.705C719.402 807.114 718.141 807.318 716.754 807.318C714.709 807.318 712.883 806.845 711.277 805.898C709.671 804.951 708.406 803.583 707.482 801.795C706.557 800.008 706.095 797.864 706.095 795.364C706.095 792.856 706.561 790.712 707.493 788.932C708.425 787.144 709.694 785.777 711.3 784.83C712.906 783.883 714.724 783.409 716.754 783.409C718.05 783.409 719.254 783.591 720.368 783.955C721.482 784.318 722.474 784.852 723.345 785.557C724.216 786.254 724.932 787.11 725.493 788.125C726.061 789.133 726.432 790.284 726.607 791.58ZM734.399 783.727V807H730.286V783.727H734.399ZM746.243 807.341C744.538 807.341 743.061 806.966 741.811 806.216C740.561 805.466 739.591 804.417 738.902 803.068C738.22 801.72 737.879 800.144 737.879 798.341C737.879 796.538 738.22 794.958 738.902 793.602C739.591 792.246 740.561 791.193 741.811 790.443C743.061 789.693 744.538 789.318 746.243 789.318C747.947 789.318 749.425 789.693 750.675 790.443C751.925 791.193 752.891 792.246 753.572 793.602C754.262 794.958 754.607 796.538 754.607 798.341C754.607 800.144 754.262 801.72 753.572 803.068C752.891 804.417 751.925 805.466 750.675 806.216C749.425 806.966 747.947 807.341 746.243 807.341ZM746.266 804.045C747.19 804.045 747.963 803.792 748.584 803.284C749.205 802.769 749.667 802.08 749.97 801.216C750.281 800.352 750.436 799.39 750.436 798.33C750.436 797.261 750.281 796.295 749.97 795.432C749.667 794.561 749.205 793.867 748.584 793.352C747.963 792.837 747.19 792.58 746.266 792.58C745.319 792.58 744.531 792.837 743.902 793.352C743.281 793.867 742.815 794.561 742.504 795.432C742.201 796.295 742.05 797.261 742.05 798.33C742.05 799.39 742.201 800.352 742.504 801.216C742.815 802.08 743.281 802.769 743.902 803.284C744.531 803.792 745.319 804.045 746.266 804.045ZM769.223 799.659V789.545H773.337V807H769.348V803.898H769.166C768.772 804.875 768.125 805.674 767.223 806.295C766.329 806.917 765.227 807.227 763.916 807.227C762.772 807.227 761.761 806.973 760.882 806.466C760.011 805.951 759.329 805.205 758.837 804.227C758.344 803.242 758.098 802.053 758.098 800.659V789.545H762.212V800.023C762.212 801.129 762.515 802.008 763.121 802.659C763.727 803.311 764.522 803.636 765.507 803.636C766.113 803.636 766.7 803.489 767.268 803.193C767.837 802.898 768.303 802.458 768.666 801.875C769.037 801.284 769.223 800.545 769.223 799.659ZM784.044 807.307C782.673 807.307 781.446 806.955 780.362 806.25C779.279 805.545 778.423 804.523 777.794 803.182C777.165 801.841 776.851 800.212 776.851 798.295C776.851 796.356 777.169 794.72 777.805 793.386C778.449 792.045 779.317 791.034 780.408 790.352C781.499 789.663 782.714 789.318 784.055 789.318C785.078 789.318 785.919 789.492 786.578 789.841C787.237 790.182 787.76 790.595 788.146 791.08C788.533 791.557 788.832 792.008 789.044 792.432H789.214V783.727H793.339V807H789.294V804.25H789.044C788.832 804.674 788.525 805.125 788.124 805.602C787.722 806.072 787.192 806.473 786.533 806.807C785.874 807.14 785.044 807.307 784.044 807.307ZM785.192 803.932C786.063 803.932 786.805 803.697 787.419 803.227C788.033 802.75 788.499 802.087 788.817 801.239C789.135 800.39 789.294 799.402 789.294 798.273C789.294 797.144 789.135 796.163 788.817 795.33C788.506 794.496 788.044 793.848 787.43 793.386C786.824 792.924 786.078 792.693 785.192 792.693C784.275 792.693 783.51 792.932 782.896 793.409C782.283 793.886 781.821 794.545 781.51 795.386C781.199 796.227 781.044 797.189 781.044 798.273C781.044 799.364 781.199 800.337 781.51 801.193C781.828 802.042 782.294 802.712 782.908 803.205C783.529 803.689 784.29 803.932 785.192 803.932Z" fill="black"/>
<path d="M330.882 515.636H335.396L341.441 530.392H341.68L347.725 515.636H352.24V536H348.7V522.01H348.511L342.883 535.94H340.238L334.61 521.98H334.421V536H330.882V515.636ZM360.492 536.308C359.525 536.308 358.653 536.136 357.877 535.791C357.108 535.44 356.499 534.923 356.048 534.24C355.604 533.557 355.382 532.715 355.382 531.714C355.382 530.853 355.541 530.14 355.859 529.577C356.177 529.013 356.611 528.562 357.161 528.224C357.712 527.886 358.331 527.631 359.021 527.459C359.717 527.28 360.436 527.151 361.178 527.071C362.073 526.978 362.799 526.895 363.356 526.822C363.913 526.743 364.317 526.624 364.569 526.464C364.828 526.299 364.957 526.044 364.957 525.699V525.639C364.957 524.89 364.735 524.31 364.291 523.899C363.847 523.488 363.207 523.283 362.372 523.283C361.49 523.283 360.791 523.475 360.274 523.859C359.763 524.244 359.419 524.698 359.24 525.222L355.879 524.744C356.144 523.816 356.581 523.041 357.191 522.418C357.801 521.788 358.547 521.317 359.428 521.006C360.31 520.688 361.285 520.528 362.352 520.528C363.088 520.528 363.82 520.615 364.549 520.787C365.278 520.959 365.945 521.244 366.548 521.642C367.151 522.033 367.635 522.567 367.999 523.243C368.371 523.919 368.556 524.764 368.556 525.778V536H365.096V533.902H364.977C364.758 534.326 364.45 534.724 364.052 535.095C363.661 535.46 363.167 535.755 362.57 535.98C361.981 536.199 361.288 536.308 360.492 536.308ZM361.427 533.663C362.15 533.663 362.776 533.521 363.306 533.236C363.837 532.944 364.244 532.56 364.529 532.082C364.821 531.605 364.967 531.085 364.967 530.521V528.722C364.854 528.814 364.662 528.901 364.39 528.98C364.125 529.06 363.827 529.129 363.495 529.189C363.164 529.249 362.836 529.302 362.511 529.348C362.186 529.394 361.904 529.434 361.666 529.467C361.129 529.54 360.648 529.66 360.224 529.825C359.8 529.991 359.465 530.223 359.22 530.521C358.974 530.813 358.852 531.191 358.852 531.655C358.852 532.318 359.094 532.818 359.578 533.156C360.061 533.494 360.678 533.663 361.427 533.663ZM378.838 536.298C377.313 536.298 376.004 535.964 374.91 535.294C373.823 534.625 372.984 533.7 372.394 532.52C371.811 531.333 371.519 529.968 371.519 528.423C371.519 526.872 371.818 525.503 372.414 524.317C373.011 523.124 373.853 522.196 374.94 521.533C376.034 520.863 377.326 520.528 378.818 520.528C380.057 520.528 381.154 520.757 382.109 521.214C383.07 521.665 383.836 522.305 384.406 523.134C384.976 523.955 385.301 524.917 385.38 526.017H381.94C381.801 525.281 381.469 524.668 380.945 524.178C380.428 523.68 379.736 523.432 378.867 523.432C378.132 523.432 377.485 523.631 376.928 524.028C376.372 524.42 375.937 524.983 375.626 525.719C375.321 526.455 375.169 527.336 375.169 528.364C375.169 529.404 375.321 530.299 375.626 531.048C375.931 531.791 376.358 532.364 376.909 532.768C377.465 533.166 378.118 533.365 378.867 533.365C379.398 533.365 379.872 533.266 380.289 533.067C380.713 532.861 381.068 532.566 381.353 532.182C381.638 531.797 381.834 531.33 381.94 530.78H385.38C385.294 531.86 384.976 532.818 384.426 533.653C383.875 534.482 383.126 535.132 382.178 535.602C381.231 536.066 380.117 536.298 378.838 536.298ZM391.935 527.051V536H388.336V515.636H391.856V523.322H392.035C392.393 522.461 392.946 521.781 393.695 521.284C394.451 520.78 395.412 520.528 396.579 520.528C397.639 520.528 398.564 520.75 399.353 521.195C400.142 521.639 400.751 522.288 401.182 523.143C401.62 523.999 401.839 525.043 401.839 526.276V536H398.239V526.832C398.239 525.805 397.974 525.006 397.444 524.436C396.92 523.859 396.184 523.571 395.236 523.571C394.6 523.571 394.03 523.71 393.526 523.989C393.029 524.26 392.638 524.655 392.353 525.172C392.074 525.689 391.935 526.315 391.935 527.051ZM405.508 536V520.727H409.107V536H405.508ZM407.317 518.56C406.747 518.56 406.257 518.371 405.846 517.993C405.435 517.608 405.229 517.148 405.229 516.611C405.229 516.067 405.435 515.607 405.846 515.229C406.257 514.844 406.747 514.652 407.317 514.652C407.894 514.652 408.385 514.844 408.789 515.229C409.2 515.607 409.405 516.067 409.405 516.611C409.405 517.148 409.2 517.608 408.789 517.993C408.385 518.371 407.894 518.56 407.317 518.56ZM416.408 527.051V536H412.808V520.727H416.249V523.322H416.428C416.779 522.467 417.339 521.788 418.108 521.284C418.884 520.78 419.842 520.528 420.982 520.528C422.036 520.528 422.954 520.754 423.736 521.205C424.525 521.655 425.135 522.308 425.566 523.163C426.003 524.018 426.218 525.056 426.212 526.276V536H422.612V526.832C422.612 525.812 422.347 525.013 421.817 524.436C421.293 523.859 420.567 523.571 419.639 523.571C419.01 523.571 418.45 523.71 417.959 523.989C417.475 524.26 417.094 524.655 416.816 525.172C416.544 525.689 416.408 526.315 416.408 527.051ZM436.632 536.298C435.101 536.298 433.779 535.98 432.665 535.344C431.558 534.701 430.706 533.793 430.11 532.619C429.513 531.439 429.215 530.051 429.215 528.453C429.215 526.882 429.513 525.503 430.11 524.317C430.713 523.124 431.555 522.196 432.635 521.533C433.716 520.863 434.985 520.528 436.443 520.528C437.385 520.528 438.273 520.681 439.108 520.986C439.95 521.284 440.692 521.748 441.335 522.378C441.985 523.008 442.495 523.81 442.867 524.784C443.238 525.752 443.423 526.905 443.423 528.244V529.348H430.905V526.922H439.973C439.967 526.232 439.817 525.619 439.526 525.082C439.234 524.539 438.826 524.111 438.303 523.8C437.786 523.488 437.182 523.332 436.493 523.332C435.757 523.332 435.111 523.511 434.554 523.869C433.997 524.221 433.563 524.685 433.252 525.261C432.947 525.831 432.791 526.458 432.784 527.141V529.259C432.784 530.147 432.947 530.909 433.271 531.545C433.596 532.175 434.05 532.659 434.634 532.997C435.217 533.329 435.9 533.494 436.682 533.494C437.206 533.494 437.68 533.421 438.104 533.276C438.528 533.123 438.896 532.901 439.208 532.609C439.519 532.318 439.754 531.956 439.914 531.526L443.274 531.903C443.062 532.792 442.658 533.567 442.061 534.23C441.471 534.886 440.716 535.397 439.794 535.761C438.873 536.119 437.819 536.298 436.632 536.298ZM453.573 536V515.636H457.262V532.908H466.231V536H453.573ZM476.035 536.298C474.503 536.298 473.181 535.98 472.067 535.344C470.96 534.701 470.108 533.793 469.512 532.619C468.915 531.439 468.617 530.051 468.617 528.453C468.617 526.882 468.915 525.503 469.512 524.317C470.115 523.124 470.957 522.196 472.037 521.533C473.118 520.863 474.387 520.528 475.846 520.528C476.787 520.528 477.675 520.681 478.51 520.986C479.352 521.284 480.095 521.748 480.738 522.378C481.387 523.008 481.898 523.81 482.269 524.784C482.64 525.752 482.826 526.905 482.826 528.244V529.348H470.307V526.922H479.376C479.369 526.232 479.22 525.619 478.928 525.082C478.636 524.539 478.229 524.111 477.705 523.8C477.188 523.488 476.585 523.332 475.895 523.332C475.16 523.332 474.513 523.511 473.956 523.869C473.4 524.221 472.965 524.685 472.654 525.261C472.349 525.831 472.193 526.458 472.187 527.141V529.259C472.187 530.147 472.349 530.909 472.674 531.545C472.999 532.175 473.453 532.659 474.036 532.997C474.619 533.329 475.302 533.494 476.084 533.494C476.608 533.494 477.082 533.421 477.506 533.276C477.93 533.123 478.298 532.901 478.61 532.609C478.921 532.318 479.157 531.956 479.316 531.526L482.677 531.903C482.465 532.792 482.06 533.567 481.464 534.23C480.874 534.886 480.118 535.397 479.197 535.761C478.275 536.119 477.221 536.298 476.035 536.298ZM490.266 536.308C489.298 536.308 488.426 536.136 487.651 535.791C486.882 535.44 486.272 534.923 485.821 534.24C485.377 533.557 485.155 532.715 485.155 531.714C485.155 530.853 485.314 530.14 485.632 529.577C485.95 529.013 486.385 528.562 486.935 528.224C487.485 527.886 488.105 527.631 488.794 527.459C489.49 527.28 490.209 527.151 490.952 527.071C491.847 526.978 492.573 526.895 493.129 526.822C493.686 526.743 494.091 526.624 494.343 526.464C494.601 526.299 494.73 526.044 494.73 525.699V525.639C494.73 524.89 494.508 524.31 494.064 523.899C493.62 523.488 492.98 523.283 492.145 523.283C491.263 523.283 490.564 523.475 490.047 523.859C489.537 524.244 489.192 524.698 489.013 525.222L485.652 524.744C485.917 523.816 486.355 523.041 486.965 522.418C487.575 521.788 488.32 521.317 489.202 521.006C490.084 520.688 491.058 520.528 492.125 520.528C492.861 520.528 493.593 520.615 494.323 520.787C495.052 520.959 495.718 521.244 496.321 521.642C496.924 522.033 497.408 522.567 497.773 523.243C498.144 523.919 498.33 524.764 498.33 525.778V536H494.869V533.902H494.75C494.531 534.326 494.223 534.724 493.825 535.095C493.434 535.46 492.941 535.755 492.344 535.98C491.754 536.199 491.061 536.308 490.266 536.308ZM491.2 533.663C491.923 533.663 492.549 533.521 493.08 533.236C493.61 532.944 494.018 532.56 494.303 532.082C494.594 531.605 494.74 531.085 494.74 530.521V528.722C494.628 528.814 494.435 528.901 494.164 528.98C493.898 529.06 493.6 529.129 493.269 529.189C492.937 529.249 492.609 529.302 492.284 529.348C491.959 529.394 491.678 529.434 491.439 529.467C490.902 529.54 490.422 529.66 489.997 529.825C489.573 529.991 489.238 530.223 488.993 530.521C488.748 530.813 488.625 531.191 488.625 531.655C488.625 532.318 488.867 532.818 489.351 533.156C489.835 533.494 490.451 533.663 491.2 533.663ZM501.949 536V520.727H505.439V523.273H505.598C505.877 522.391 506.354 521.712 507.03 521.234C507.713 520.75 508.492 520.509 509.367 520.509C509.566 520.509 509.788 520.518 510.033 520.538C510.285 520.552 510.494 520.575 510.659 520.608V523.919C510.507 523.866 510.265 523.82 509.933 523.78C509.609 523.733 509.294 523.71 508.989 523.71C508.333 523.71 507.743 523.853 507.219 524.138C506.702 524.416 506.294 524.804 505.996 525.301C505.698 525.798 505.548 526.372 505.548 527.021V536H501.949ZM516.65 527.051V536H513.051V520.727H516.491V523.322H516.67C517.021 522.467 517.581 521.788 518.35 521.284C519.126 520.78 520.084 520.528 521.224 520.528C522.278 520.528 523.196 520.754 523.978 521.205C524.767 521.655 525.377 522.308 525.808 523.163C526.245 524.018 526.461 525.056 526.454 526.276V536H522.855V526.832C522.855 525.812 522.589 525.013 522.059 524.436C521.535 523.859 520.81 523.571 519.882 523.571C519.252 523.571 518.692 523.71 518.201 523.989C517.717 524.26 517.336 524.655 517.058 525.172C516.786 525.689 516.65 526.315 516.65 527.051ZM530.113 536V520.727H533.713V536H530.113ZM531.923 518.56C531.353 518.56 530.862 518.371 530.451 517.993C530.04 517.608 529.835 517.148 529.835 516.611C529.835 516.067 530.04 515.607 530.451 515.229C530.862 514.844 531.353 514.652 531.923 514.652C532.499 514.652 532.99 514.844 533.394 515.229C533.805 515.607 534.011 516.067 534.011 516.611C534.011 517.148 533.805 517.608 533.394 517.993C532.99 518.371 532.499 518.56 531.923 518.56ZM541.013 527.051V536H537.414V520.727H540.854V523.322H541.033C541.385 522.467 541.945 521.788 542.714 521.284C543.489 520.78 544.447 520.528 545.587 520.528C546.641 520.528 547.559 520.754 548.341 521.205C549.13 521.655 549.74 522.308 550.171 523.163C550.608 524.018 550.824 525.056 550.817 526.276V536H547.218V526.832C547.218 525.812 546.953 525.013 546.422 524.436C545.899 523.859 545.173 523.571 544.245 523.571C543.615 523.571 543.055 523.71 542.564 523.989C542.081 524.26 541.699 524.655 541.421 525.172C541.149 525.689 541.013 526.315 541.013 527.051ZM561.118 542.045C559.826 542.045 558.715 541.87 557.787 541.518C556.859 541.174 556.114 540.71 555.55 540.126C554.987 539.543 554.596 538.897 554.377 538.188L557.618 537.402C557.764 537.7 557.976 537.995 558.255 538.287C558.533 538.585 558.908 538.83 559.378 539.023C559.856 539.222 560.456 539.321 561.178 539.321C562.199 539.321 563.044 539.072 563.714 538.575C564.383 538.085 564.718 537.276 564.718 536.149V533.256H564.539C564.353 533.627 564.081 534.008 563.724 534.399C563.372 534.79 562.905 535.118 562.322 535.384C561.745 535.649 561.019 535.781 560.144 535.781C558.971 535.781 557.907 535.506 556.952 534.956C556.004 534.399 555.249 533.571 554.685 532.47C554.128 531.363 553.85 529.978 553.85 528.314C553.85 526.637 554.128 525.222 554.685 524.068C555.249 522.908 556.008 522.03 556.962 521.433C557.917 520.83 558.981 520.528 560.154 520.528C561.049 520.528 561.785 520.681 562.361 520.986C562.945 521.284 563.409 521.645 563.753 522.07C564.098 522.487 564.36 522.882 564.539 523.253H564.738V520.727H568.287V536.249C568.287 537.554 567.976 538.635 567.353 539.49C566.73 540.345 565.878 540.985 564.797 541.409C563.717 541.833 562.491 542.045 561.118 542.045ZM561.148 532.957C561.911 532.957 562.56 532.772 563.097 532.401C563.634 532.029 564.042 531.496 564.32 530.8C564.599 530.104 564.738 529.268 564.738 528.294C564.738 527.333 564.599 526.491 564.32 525.768C564.048 525.046 563.644 524.486 563.107 524.088C562.577 523.684 561.924 523.482 561.148 523.482C560.346 523.482 559.677 523.69 559.14 524.108C558.603 524.526 558.198 525.099 557.927 525.828C557.655 526.551 557.519 527.373 557.519 528.294C557.519 529.229 557.655 530.047 557.927 530.75C558.205 531.446 558.613 531.99 559.15 532.381C559.693 532.765 560.359 532.957 561.148 532.957Z" fill="black"/>
<defs>
<clipPath id="clip0_1813_1253">
<rect width="130" height="130" fill="white" transform="translate(385 375)"/>
</clipPath>
</defs>
</svg>
